<svg width="512" height="512" viewBox="0 0 512 512" fill="none" xmlns="http://www.w3.org/2000/svg">
<path d="M48 48C49.6487 48 51.2952 48.0101 52.9395 48.0293C53.0937 48.0311 53.2481 48.0322 53.4023 48.0342C54.0375 48.0423 54.6722 48.0535 55.3066 48.0645C55.5818 48.0692 55.8568 48.0728 56.1318 48.0781C56.5252 48.0857 56.9184 48.0958 57.3115 48.1045C57.8701 48.1168 58.4283 48.1281 58.9863 48.1426C59.2778 48.1502 59.5691 48.1598 59.8604 48.168C60.4599 48.1848 61.0593 48.2013 61.6582 48.2207C61.9698 48.2308 62.2813 48.2431 62.5928 48.2539C63.2139 48.2754 63.8347 48.2971 64.4551 48.3213C64.7514 48.3328 65.0476 48.3452 65.3438 48.3574C65.9206 48.3811 66.497 48.4056 67.0732 48.4316C67.452 48.4488 67.8305 48.4672 68.209 48.4854C68.7392 48.5108 69.2692 48.5361 69.7988 48.5635C70.1978 48.5841 70.5965 48.6061 70.9951 48.6279C71.4901 48.655 71.9849 48.6822 72.4795 48.7109C72.8914 48.7349 73.3032 48.76 73.7148 48.7852C74.1968 48.8146 74.6786 48.8439 75.1602 48.875C75.608 48.9039 76.0555 48.9345 76.5029 48.9648C76.9299 48.9938 77.3566 49.0235 77.7832 49.0537C78.2603 49.0876 78.7372 49.1227 79.2139 49.1582C79.6779 49.1927 80.1418 49.2276 80.6055 49.2637C80.9412 49.2898 81.2768 49.3168 81.6123 49.3438C82.1976 49.3907 82.7826 49.438 83.3672 49.4873C83.7195 49.5171 84.0717 49.5475 84.4238 49.5781C84.9208 49.6214 85.4176 49.666 85.9141 49.7109C86.325 49.7482 86.7359 49.7858 87.1465 49.8242C87.6389 49.8703 88.1311 49.917 88.623 49.9648C89.0177 50.0032 89.4123 50.0416 89.8066 50.0811C90.3379 50.1342 90.8687 50.189 91.3994 50.2441C91.7156 50.277 92.0317 50.3102 92.3477 50.3438C92.8867 50.401 93.4254 50.4592 93.9639 50.5186C94.3928 50.5658 94.8215 50.6135 95.25 50.6621C95.7148 50.7148 96.1792 50.769 96.6436 50.8232C96.9871 50.8634 97.3306 50.9034 97.6738 50.9443C98.27 51.0155 98.8656 51.0885 99.4609 51.1621C99.7911 51.203 100.121 51.2435 100.451 51.2852C100.911 51.3431 101.37 51.4024 101.829 51.4619C102.263 51.5181 102.697 51.5733 103.131 51.6309C103.628 51.6968 104.124 51.7643 104.62 51.832C104.985 51.8817 105.349 51.9318 105.713 51.9824C106.255 52.0578 106.796 52.1354 107.337 52.2129C107.684 52.2625 108.03 52.3118 108.377 52.3623C108.935 52.4436 109.492 52.5268 110.049 52.6104C110.343 52.6544 110.637 52.6975 110.931 52.7422C111.536 52.8343 112.141 52.9287 112.746 53.0234C113.032 53.0682 113.318 53.1119 113.604 53.1572C114.284 53.2654 114.965 53.3759 115.645 53.4873C115.815 53.5153 115.986 53.5421 116.156 53.5703C116.812 53.6786 117.467 53.79 118.121 53.9014C118.369 53.9435 118.617 53.9857 118.864 54.0283C119.501 54.1378 120.136 54.249 120.771 54.3613C120.997 54.4012 121.222 54.4403 121.447 54.4805C124.948 55.1055 128.433 55.7741 131.902 56.4863C132.086 56.524 132.269 56.5636 132.453 56.6016C133.121 56.7396 133.788 56.8783 134.455 57.0195C134.486 57.0261 134.518 57.0324 134.549 57.0391C322.711 96.9503 464 264.293 464 464H377.22C377.22 308.743 276.215 182.447 134.549 145.521V464H48V48Z" fill="white"/>
</svg>
